<mxfile host="Electron" agent="Mozilla/5.0 (Windows NT 10.0; Win64; x64) AppleWebKit/537.36 (KHTML, like Gecko) draw.io/24.7.8 Chrome/128.0.6613.36 Electron/32.0.1 Safari/537.36" version="24.7.8">
  <diagram name="第 1 页" id="RXVIKA_FzbKzhoj3cWCY">
    <mxGraphModel dx="819" dy="478" grid="1" gridSize="10" guides="1" tooltips="1" connect="1" arrows="1" fold="1" page="1" pageScale="1" pageWidth="827" pageHeight="1169" math="0" shadow="0">
      <root>
        <mxCell id="0" />
        <mxCell id="1" parent="0" />
        <mxCell id="d7ucW2_pHV0mePsZ-QPq-1" value="TCP客户端" style="text;html=1;align=center;verticalAlign=middle;resizable=0;points=[];autosize=1;strokeColor=none;fillColor=none;" vertex="1" parent="1">
          <mxGeometry x="302" y="75" width="80" height="30" as="geometry" />
        </mxCell>
        <mxCell id="d7ucW2_pHV0mePsZ-QPq-2" value="TCP服务端" style="text;html=1;align=center;verticalAlign=middle;resizable=0;points=[];autosize=1;strokeColor=none;fillColor=none;" vertex="1" parent="1">
          <mxGeometry x="442" y="73" width="80" height="30" as="geometry" />
        </mxCell>
        <mxCell id="d7ucW2_pHV0mePsZ-QPq-5" value="socket()" style="rounded=0;whiteSpace=wrap;html=1;" vertex="1" parent="1">
          <mxGeometry x="302" y="100" width="80" height="30" as="geometry" />
        </mxCell>
        <mxCell id="d7ucW2_pHV0mePsZ-QPq-6" value="socket()" style="rounded=0;whiteSpace=wrap;html=1;" vertex="1" parent="1">
          <mxGeometry x="445" y="100" width="80" height="30" as="geometry" />
        </mxCell>
        <mxCell id="d7ucW2_pHV0mePsZ-QPq-25" style="edgeStyle=orthogonalEdgeStyle;rounded=0;orthogonalLoop=1;jettySize=auto;html=1;entryX=0.5;entryY=0;entryDx=0;entryDy=0;" edge="1" parent="1" source="d7ucW2_pHV0mePsZ-QPq-7" target="d7ucW2_pHV0mePsZ-QPq-17">
          <mxGeometry relative="1" as="geometry" />
        </mxCell>
        <mxCell id="d7ucW2_pHV0mePsZ-QPq-7" value="connect()" style="rounded=0;whiteSpace=wrap;html=1;" vertex="1" parent="1">
          <mxGeometry x="302" y="300" width="80" height="30" as="geometry" />
        </mxCell>
        <mxCell id="d7ucW2_pHV0mePsZ-QPq-8" value="bind()" style="rounded=0;whiteSpace=wrap;html=1;" vertex="1" parent="1">
          <mxGeometry x="445" y="150" width="80" height="30" as="geometry" />
        </mxCell>
        <mxCell id="d7ucW2_pHV0mePsZ-QPq-9" value="listen()" style="rounded=0;whiteSpace=wrap;html=1;" vertex="1" parent="1">
          <mxGeometry x="445" y="200" width="80" height="30" as="geometry" />
        </mxCell>
        <mxCell id="d7ucW2_pHV0mePsZ-QPq-19" style="edgeStyle=orthogonalEdgeStyle;rounded=0;orthogonalLoop=1;jettySize=auto;html=1;entryX=0.5;entryY=0;entryDx=0;entryDy=0;" edge="1" parent="1" source="d7ucW2_pHV0mePsZ-QPq-10" target="d7ucW2_pHV0mePsZ-QPq-18">
          <mxGeometry relative="1" as="geometry" />
        </mxCell>
        <mxCell id="d7ucW2_pHV0mePsZ-QPq-10" value="accept()" style="rounded=0;whiteSpace=wrap;html=1;" vertex="1" parent="1">
          <mxGeometry x="445" y="250" width="80" height="30" as="geometry" />
        </mxCell>
        <mxCell id="d7ucW2_pHV0mePsZ-QPq-11" value="" style="endArrow=classic;html=1;rounded=0;dashed=1;" edge="1" parent="1">
          <mxGeometry width="50" height="50" relative="1" as="geometry">
            <mxPoint x="390" y="314.71" as="sourcePoint" />
            <mxPoint x="482" y="315" as="targetPoint" />
          </mxGeometry>
        </mxCell>
        <mxCell id="d7ucW2_pHV0mePsZ-QPq-12" value="&lt;font color=&quot;#009900&quot; style=&quot;font-size: 10px;&quot;&gt;&lt;b&gt;建立连接&lt;/b&gt;&lt;/font&gt;" style="text;html=1;align=center;verticalAlign=middle;resizable=0;points=[];autosize=1;strokeColor=none;fillColor=none;" vertex="1" parent="1">
          <mxGeometry x="402" y="290" width="60" height="30" as="geometry" />
        </mxCell>
        <mxCell id="d7ucW2_pHV0mePsZ-QPq-13" value="" style="endArrow=classic;html=1;rounded=0;entryX=0.5;entryY=0;entryDx=0;entryDy=0;exitX=0.5;exitY=1;exitDx=0;exitDy=0;" edge="1" parent="1" source="d7ucW2_pHV0mePsZ-QPq-5" target="d7ucW2_pHV0mePsZ-QPq-7">
          <mxGeometry width="50" height="50" relative="1" as="geometry">
            <mxPoint x="342" y="230" as="sourcePoint" />
            <mxPoint x="392" y="180" as="targetPoint" />
          </mxGeometry>
        </mxCell>
        <mxCell id="d7ucW2_pHV0mePsZ-QPq-14" value="" style="endArrow=classic;html=1;rounded=0;entryX=0.5;entryY=0;entryDx=0;entryDy=0;" edge="1" parent="1">
          <mxGeometry width="50" height="50" relative="1" as="geometry">
            <mxPoint x="486" y="230" as="sourcePoint" />
            <mxPoint x="486" y="250" as="targetPoint" />
          </mxGeometry>
        </mxCell>
        <mxCell id="d7ucW2_pHV0mePsZ-QPq-15" value="" style="endArrow=classic;html=1;rounded=0;entryX=0.5;entryY=0;entryDx=0;entryDy=0;" edge="1" parent="1">
          <mxGeometry width="50" height="50" relative="1" as="geometry">
            <mxPoint x="486" y="180" as="sourcePoint" />
            <mxPoint x="486" y="200" as="targetPoint" />
          </mxGeometry>
        </mxCell>
        <mxCell id="d7ucW2_pHV0mePsZ-QPq-16" value="" style="endArrow=classic;html=1;rounded=0;entryX=0.5;entryY=0;entryDx=0;entryDy=0;" edge="1" parent="1">
          <mxGeometry width="50" height="50" relative="1" as="geometry">
            <mxPoint x="486" y="130" as="sourcePoint" />
            <mxPoint x="486" y="150" as="targetPoint" />
          </mxGeometry>
        </mxCell>
        <mxCell id="d7ucW2_pHV0mePsZ-QPq-31" style="edgeStyle=orthogonalEdgeStyle;rounded=0;orthogonalLoop=1;jettySize=auto;html=1;entryX=0.5;entryY=0;entryDx=0;entryDy=0;" edge="1" parent="1" source="d7ucW2_pHV0mePsZ-QPq-17" target="d7ucW2_pHV0mePsZ-QPq-29">
          <mxGeometry relative="1" as="geometry" />
        </mxCell>
        <mxCell id="d7ucW2_pHV0mePsZ-QPq-17" value="send()" style="rounded=0;whiteSpace=wrap;html=1;" vertex="1" parent="1">
          <mxGeometry x="302" y="360" width="80" height="30" as="geometry" />
        </mxCell>
        <mxCell id="d7ucW2_pHV0mePsZ-QPq-32" style="edgeStyle=orthogonalEdgeStyle;rounded=0;orthogonalLoop=1;jettySize=auto;html=1;entryX=0.5;entryY=0;entryDx=0;entryDy=0;" edge="1" parent="1" source="d7ucW2_pHV0mePsZ-QPq-18" target="d7ucW2_pHV0mePsZ-QPq-30">
          <mxGeometry relative="1" as="geometry" />
        </mxCell>
        <mxCell id="d7ucW2_pHV0mePsZ-QPq-18" value="recv()" style="rounded=0;whiteSpace=wrap;html=1;" vertex="1" parent="1">
          <mxGeometry x="445" y="360" width="80" height="30" as="geometry" />
        </mxCell>
        <mxCell id="d7ucW2_pHV0mePsZ-QPq-21" value="&lt;font style=&quot;font-size: 10px;&quot;&gt;阻塞&lt;/font&gt;&lt;span style=&quot;font-size: 10px; background-color: initial;&quot;&gt;直到&lt;/span&gt;&lt;span style=&quot;background-color: initial; font-size: 10px;&quot;&gt;有&lt;/span&gt;&lt;div&gt;&lt;span style=&quot;background-color: initial; font-size: 10px;&quot;&gt;客户端建立连接&lt;/span&gt;&lt;/div&gt;" style="text;html=1;align=center;verticalAlign=middle;resizable=0;points=[];autosize=1;strokeColor=none;fillColor=none;" vertex="1" parent="1">
          <mxGeometry x="477" y="295" width="90" height="40" as="geometry" />
        </mxCell>
        <mxCell id="d7ucW2_pHV0mePsZ-QPq-23" value="" style="rounded=0;whiteSpace=wrap;html=1;fillColor=none;dashed=1;strokeColor=#9933FF;" vertex="1" parent="1">
          <mxGeometry x="280" y="341" width="290" height="120" as="geometry" />
        </mxCell>
        <mxCell id="d7ucW2_pHV0mePsZ-QPq-27" value="" style="endArrow=classic;html=1;rounded=0;dashed=1;" edge="1" parent="1">
          <mxGeometry width="50" height="50" relative="1" as="geometry">
            <mxPoint x="390" y="374.71" as="sourcePoint" />
            <mxPoint x="442" y="375" as="targetPoint" />
          </mxGeometry>
        </mxCell>
        <mxCell id="d7ucW2_pHV0mePsZ-QPq-28" value="&lt;font style=&quot;font-size: 10px;&quot;&gt;请求数据&lt;/font&gt;" style="text;html=1;align=center;verticalAlign=middle;resizable=0;points=[];autosize=1;strokeColor=none;fillColor=none;" vertex="1" parent="1">
          <mxGeometry x="384" y="348" width="60" height="30" as="geometry" />
        </mxCell>
        <mxCell id="d7ucW2_pHV0mePsZ-QPq-29" value="recv()" style="rounded=0;whiteSpace=wrap;html=1;" vertex="1" parent="1">
          <mxGeometry x="302" y="420" width="80" height="30" as="geometry" />
        </mxCell>
        <mxCell id="d7ucW2_pHV0mePsZ-QPq-39" style="edgeStyle=orthogonalEdgeStyle;rounded=0;orthogonalLoop=1;jettySize=auto;html=1;entryX=0.5;entryY=0;entryDx=0;entryDy=0;" edge="1" parent="1" source="d7ucW2_pHV0mePsZ-QPq-30" target="d7ucW2_pHV0mePsZ-QPq-37">
          <mxGeometry relative="1" as="geometry" />
        </mxCell>
        <mxCell id="d7ucW2_pHV0mePsZ-QPq-30" value="send()" style="rounded=0;whiteSpace=wrap;html=1;" vertex="1" parent="1">
          <mxGeometry x="445" y="420" width="80" height="30" as="geometry" />
        </mxCell>
        <mxCell id="d7ucW2_pHV0mePsZ-QPq-33" value="" style="endArrow=none;html=1;rounded=0;dashed=1;startArrow=block;startFill=1;endFill=0;" edge="1" parent="1">
          <mxGeometry width="50" height="50" relative="1" as="geometry">
            <mxPoint x="390" y="434.71" as="sourcePoint" />
            <mxPoint x="442" y="435" as="targetPoint" />
          </mxGeometry>
        </mxCell>
        <mxCell id="d7ucW2_pHV0mePsZ-QPq-34" value="&lt;font style=&quot;font-size: 10px;&quot;&gt;响应数据&lt;/font&gt;" style="text;html=1;align=center;verticalAlign=middle;resizable=0;points=[];autosize=1;strokeColor=none;fillColor=none;" vertex="1" parent="1">
          <mxGeometry x="385" y="407" width="60" height="30" as="geometry" />
        </mxCell>
        <mxCell id="d7ucW2_pHV0mePsZ-QPq-35" value="close()" style="rounded=0;whiteSpace=wrap;html=1;" vertex="1" parent="1">
          <mxGeometry x="302" y="481" width="80" height="30" as="geometry" />
        </mxCell>
        <mxCell id="d7ucW2_pHV0mePsZ-QPq-36" style="edgeStyle=orthogonalEdgeStyle;rounded=0;orthogonalLoop=1;jettySize=auto;html=1;entryX=0.5;entryY=0;entryDx=0;entryDy=0;" edge="1" parent="1" target="d7ucW2_pHV0mePsZ-QPq-35">
          <mxGeometry relative="1" as="geometry">
            <mxPoint x="342" y="450" as="sourcePoint" />
            <mxPoint x="342" y="480" as="targetPoint" />
          </mxGeometry>
        </mxCell>
        <mxCell id="d7ucW2_pHV0mePsZ-QPq-40" style="edgeStyle=orthogonalEdgeStyle;rounded=0;orthogonalLoop=1;jettySize=auto;html=1;entryX=0.5;entryY=0;entryDx=0;entryDy=0;" edge="1" parent="1" source="d7ucW2_pHV0mePsZ-QPq-37" target="d7ucW2_pHV0mePsZ-QPq-38">
          <mxGeometry relative="1" as="geometry" />
        </mxCell>
        <mxCell id="d7ucW2_pHV0mePsZ-QPq-37" value="recv()" style="rounded=0;whiteSpace=wrap;html=1;" vertex="1" parent="1">
          <mxGeometry x="445" y="481" width="80" height="30" as="geometry" />
        </mxCell>
        <mxCell id="d7ucW2_pHV0mePsZ-QPq-38" value="close()" style="rounded=0;whiteSpace=wrap;html=1;" vertex="1" parent="1">
          <mxGeometry x="445" y="544" width="80" height="30" as="geometry" />
        </mxCell>
        <mxCell id="d7ucW2_pHV0mePsZ-QPq-41" value="" style="endArrow=classic;html=1;rounded=0;dashed=1;" edge="1" parent="1">
          <mxGeometry width="50" height="50" relative="1" as="geometry">
            <mxPoint x="390" y="494.71" as="sourcePoint" />
            <mxPoint x="442" y="495" as="targetPoint" />
          </mxGeometry>
        </mxCell>
        <mxCell id="d7ucW2_pHV0mePsZ-QPq-42" value="&lt;font color=&quot;#cc0000&quot; style=&quot;font-size: 10px;&quot;&gt;&lt;b&gt;断开连接&lt;/b&gt;&lt;/font&gt;" style="text;html=1;align=center;verticalAlign=middle;resizable=0;points=[];autosize=1;strokeColor=none;fillColor=none;" vertex="1" parent="1">
          <mxGeometry x="382" y="470" width="60" height="30" as="geometry" />
        </mxCell>
      </root>
    </mxGraphModel>
  </diagram>
</mxfile>
